<?xml version="1.0" encoding="utf-8"?>
<!-- Generator: Adobe Illustrator 22.1.0, SVG Export Plug-In . SVG Version: 6.00 Build 0)  -->
<svg version="1.1" xmlns="http://www.w3.org/2000/svg" xmlns:xlink="http://www.w3.org/1999/xlink" x="0px" y="0px"
	 viewBox="0 0 400 140" style="enable-background:new 0 0 400 140;" xml:space="preserve">
<style type="text/css">
	.st0{opacity:0.89;}
</style>
<g id="Layer_1">
	<g class="st0">
		<path d="M59.9,60.8v-2.5h0.7v2.5c0,3.9-1.9,6.5-6.2,6.5c-16.6,0-5.3-24.6-18.2-24.6h-1.9h-5.6V66h6.5v0.7H15V66h4.8V17.9H15v-0.7
			h19.4c10.6,0,18.5,4.8,18.5,12.9c0,6.8-5.5,11.1-13.4,12.4c20.7,2,11.2,23.4,17.1,23.4C58.2,65.9,59.9,65,59.9,60.8z M28.8,17.9
			v24.2h5.6c5.6,0,9.6-2.7,9.6-10.6v-2.9c0-8-4.2-10.7-9.6-10.7H28.8z"/>
		<path d="M88.7,17.9h-4.9v32.6c0,8.4,3.1,15.9,13.1,15.9c8.2,0,15-4.7,15-16.2V17.9h-7.2v-0.7h14.5v0.7h-6.5v32.4
			c0,10.2-5.5,17.1-16.8,17.1c-13.1,0-20.9-4.7-20.9-16.4V17.9H70v-0.7h18.7V17.9z"/>
		<path d="M130.5,66.7V66h4.8V17.9h-4.8v-0.7h37.1V30h-0.7c0,0-0.7-12.1-10-12.1h-12.7v23.2h6.9c7.3,0,8.1-7.7,8.2-9.3v-0.3h0.7
			v19.8h-0.7v-0.3c-0.1-1.5-0.9-9.3-8.2-9.3h-6.9V66h12.2c10.7,0,11.4-13.5,11.4-13.5h0.7v14.2H130.5z"/>
		<path d="M248.8,66.7V61c-0.1-1.3-0.9-1.7-1.7-1.7c-0.7,0-1.3,0.4-1.7,0.9c-3.4,4.1-7.2,7.2-15.8,7.2c-13.5,0-23.6-10-23.6-25.4
			c0-14.8,10.2-25.5,24.5-25.5c6.2,0,11.8,2.4,14.2,4c0,0,0.4,0.2,0.9,0.2c0.6,0,0.8-0.6,0.9-0.9v-0.1v-1.6h0.7v16.3h-0.7
			c-1-9-6.3-17.1-16.1-17.1c-7,0-14.8,5-14.8,21.5v5.8c0,16.4,7.3,22.2,15.4,22.2c7.1,0,9.5-5.3,9.5-10.6V46h-5.9v-0.7H253V46h-3.4
			v20.7H248.8z"/>
		<path d="M264.3,17.2h18.3v0.7h-4.7V66h4.8v0.7h-18.6V66h4.8V17.9h-4.6V17.2z"/>
		<path d="M295.9,66.7V66h4.8V17.9h-4.8v-0.7h18.5v0.7h-4.8V66h10.6c9.9,0,11.3-12.2,11.4-14v-0.3h0.7v15H295.9z"/>
		<path d="M385,31.6h-0.7v-0.1c-0.1-1.3-1.9-13.5-10.3-13.5h-5.7V66h6.2v0.7h-21.3V66h6.2V17.9h-5.6c-8.9,0-10.3,13.6-10.3,13.6
			h-0.7V17.2H385V31.6z"/>
		<path d="M81.1,121.8c-1.9-1.1-3.5-2.7-4.6-4.8c-1.1-2.1-1.7-4.4-1.7-7.2c0-2.7,0.6-5.1,1.7-7.1c1.2-2,2.8-3.6,4.8-4.7
			c2-1.1,4.4-1.7,7-1.7c1.3,0,2.6,0.1,3.9,0.4c1.3,0.3,2.4,0.6,3.4,1.1l-0.3,3.1c-2.4-0.9-4.7-1.4-6.9-1.4c-2.2,0-4,0.5-5.4,1.4
			c-1.5,0.9-2.5,2.1-3.2,3.7c-0.7,1.6-1.1,3.3-1.1,5.3c0,3.1,0.8,5.6,2.5,7.5c1.7,1.9,4.1,2.8,7.4,2.8c0.7,0,1.4-0.1,2.2-0.2
			c0.8-0.1,1.5-0.3,2.1-0.5v-6.5h-4.1v-3.2h7.6v11.6c-1.1,0.6-2.4,1.1-3.9,1.4c-1.5,0.4-3.2,0.5-5,0.5
			C85.3,123.5,83.1,122.9,81.1,121.8z"/>
		<path d="M123.3,96.9h8.5c2.8,0,5,0.7,6.6,2c1.6,1.3,2.4,3.3,2.4,6c0,3.5-1.5,5.9-4.5,7.3l5.8,10.8h-4.3l-5.3-10.2h-0.2H127v10.2
			h-3.7V96.9z M131.7,109.6c1.7,0,3.1-0.4,4-1.3c0.9-0.8,1.4-2,1.4-3.5c0-1.5-0.5-2.7-1.4-3.5c-0.9-0.8-2.2-1.2-4-1.2H127v9.6H131.7
			z"/>
		<path d="M171.8,121.8c-2-1.1-3.5-2.7-4.6-4.8c-1.1-2-1.6-4.4-1.6-7.1c0-2.7,0.5-5.1,1.6-7.1c1.1-2,2.6-3.6,4.6-4.8
			c1.9-1.1,4.2-1.7,6.7-1.7c2.5,0,4.7,0.6,6.7,1.7c1.9,1.1,3.5,2.7,4.6,4.8c1.1,2,1.6,4.4,1.6,7.1c0,2.7-0.5,5.1-1.6,7.1
			c-1.1,2-2.6,3.6-4.6,4.8c-2,1.1-4.2,1.7-6.7,1.7C176,123.5,173.8,122.9,171.8,121.8z M183.4,118.7c1.4-0.9,2.4-2.1,3.1-3.6
			c0.7-1.5,1-3.3,1-5.2c0-1.9-0.3-3.7-1-5.2c-0.7-1.5-1.7-2.7-3.1-3.6c-1.4-0.9-3-1.3-5-1.3c-1.9,0-3.6,0.4-5,1.3
			c-1.4,0.9-2.4,2.1-3.1,3.6c-0.7,1.5-1,3.3-1,5.2c0,1.9,0.3,3.7,1,5.2c0.7,1.5,1.7,2.7,3.1,3.6c1.4,0.9,3,1.3,5,1.3
			C180.4,120,182.1,119.6,183.4,118.7z"/>
		<path d="M219.8,120.4c-1.8-2-2.7-4.9-2.7-8.6v-15h3.5v14c0,2.9,0.5,5.1,1.5,6.8c1,1.7,2.9,2.5,5.7,2.5c2.8,0,4.7-0.9,5.7-2.6
			c1-1.7,1.5-4,1.5-6.8v-14h3.5v15c0,3.7-0.9,6.5-2.7,8.6c-1.8,2-4.5,3-8.1,3C224.3,123.5,221.6,122.4,219.8,120.4z"/>
		<path d="M266,96.9h8.6c2.8,0,4.9,0.7,6.5,2c1.6,1.4,2.3,3.5,2.3,6.4c0,2.9-0.8,5-2.3,6.4c-1.6,1.4-3.7,2.1-6.5,2.1h-4.9v9.1H266
			V96.9z M274.1,110.6c1.9,0,3.3-0.4,4.3-1.3c0.9-0.9,1.4-2.2,1.4-4c0-1.8-0.5-3.2-1.4-4c-0.9-0.9-2.4-1.3-4.3-1.3h-4.4v10.6H274.1z
			"/>
		<path d="M308.6,96.9h15.9v3.2h-12.4v7.6h9.8v3.2h-9.8v8.8h12.7v3.2h-16.2V96.9z"/>
	</g>
</g>
<g id="Layer_2">
</g>
</svg>
